<?xml version="1.0" standalone="no"?>
<!DOCTYPE svg PUBLIC "-//W3C//DTD SVG 20010904//EN"
 "http://www.w3.org/TR/2001/REC-SVG-20010904/DTD/svg10.dtd">
<svg version="1.0" xmlns="http://www.w3.org/2000/svg"
 width="1280.000000pt" height="640.000000pt" viewBox="0 0 1280.000000 640.000000"
 preserveAspectRatio="xMidYMid meet">
<g transform="translate(0.000000,640.000000) scale(0.100000,-0.100000)"
fill="#607d8b" stroke="none">
<path d="M3690 6353 c-445 -13 -776 -26 -875 -33 -577 -45 -625 -50 -740 -77
-209 -48 -238 -78 -489 -494 -103 -173 -238 -396 -299 -495 l-110 -182 -51 -5
c-28 -4 -190 -12 -361 -18 l-310 -12 -147 27 c-116 21 -152 24 -169 16 -12 -7
-34 -41 -51 -78 -24 -54 -28 -69 -19 -89 17 -37 13 -60 -29 -178 -21 -61 -35
-114 -31 -120 11 -14 91 -273 91 -295 0 -9 -18 -36 -41 -59 -32 -32 -40 -47
-35 -64 4 -12 18 -65 32 -117 13 -52 35 -115 47 -140 14 -29 22 -66 23 -102 2
-63 21 -102 55 -113 12 -4 88 -54 170 -111 82 -57 154 -104 160 -104 7 0 34
20 61 46 26 25 53 42 58 39 6 -3 10 -50 10 -103 0 -161 34 -388 86 -572 38
-136 56 -181 100 -257 30 -51 54 -96 54 -100 0 -5 35 -43 78 -85 100 -100 100
-100 363 -58 249 40 257 44 318 166 28 55 48 83 56 80 7 -2 442 -243 967 -534
524 -291 1039 -575 1143 -631 203 -108 212 -110 309 -88 l50 12 67 213 c37
117 69 215 71 218 12 11 170 36 178 28 5 -5 16 -81 24 -169 38 -380 28 -334
141 -652 119 -331 152 -395 330 -628 82 -109 127 -157 209 -225 92 -77 118
-93 211 -129 l106 -41 122 14 c102 12 169 29 402 101 154 48 297 98 317 111
21 13 41 24 44 24 4 0 63 -23 131 -50 l123 -51 113 11 c130 13 191 27 304 70
85 32 118 61 196 169 56 76 111 97 622 229 253 66 474 122 490 125 17 3 77 19
135 35 104 29 989 264 1043 276 18 4 29 2 32 -7 3 -7 -13 -102 -35 -211 -22
-109 -39 -200 -37 -202 2 -3 161 50 353 117 192 66 448 154 569 196 121 41
224 78 228 83 5 4 19 56 33 116 37 161 29 147 83 140 59 -8 148 7 169 27 15
15 14 18 -6 40 -24 25 -43 37 -106 62 -34 13 -38 17 -25 29 15 14 962 392
1097 438 77 26 94 28 244 28 176 0 265 15 307 53 36 34 76 96 152 238 38 72
79 143 89 158 16 21 19 34 12 71 -7 43 -11 48 -97 105 l-90 61 -155 28 c-85
16 -159 32 -164 37 -9 8 44 80 479 647 133 174 146 204 103 232 -77 49 -224
110 -266 110 -24 0 -44 23 -122 138 -37 55 -59 97 -54 102 5 5 44 -14 94 -46
135 -87 154 -94 88 -31 -31 30 -75 65 -97 78 -23 13 -83 50 -133 81 -83 51
-251 121 -416 174 -100 31 -540 125 -702 148 -96 14 -481 71 -855 126 -680
101 -828 122 -1260 179 -126 17 -264 35 -305 41 -208 29 -623 80 -760 95 -160
17 -230 30 -230 44 0 4 -18 32 -40 61 -22 29 -40 57 -40 62 0 5 16 18 35 29
48 29 47 63 -2 111 -21 20 -53 43 -70 52 -18 9 -49 27 -69 41 -20 14 -49 25
-64 25 -15 0 -35 10 -47 23 -11 12 -150 195 -309 407 -159 212 -320 417 -359
457 -61 61 -81 75 -150 101 -144 55 -178 61 -588 107 -311 35 -758 48 -1602
49 -379 1 -724 0 -765 -1z"/>
</g>
</svg>
