<?xml version="1.0" standalone="no"?>
<!DOCTYPE svg PUBLIC "-//W3C//DTD SVG 20010904//EN"
 "http://www.w3.org/TR/2001/REC-SVG-20010904/DTD/svg10.dtd">
<svg version="1.0" xmlns="http://www.w3.org/2000/svg"
 width="1280.000000pt" height="672.000000pt" viewBox="0 0 1280.000000 672.000000"
 preserveAspectRatio="xMidYMid meet">
<g transform="translate(0.000000,672.000000) scale(0.100000,-0.100000)"
fill="#03a9f4" stroke="none">
<path d="M8045 6673 c-302 -5 -661 -35 -835 -69 -69 -14 -163 -32 -210 -40
-47 -7 -105 -18 -130 -23 -25 -5 -85 -16 -135 -25 -129 -24 -219 -42 -305 -61
-41 -9 -104 -23 -140 -30 -252 -52 -293 -67 -540 -192 -290 -148 -487 -262
-720 -416 -113 -76 -319 -225 -360 -262 -20 -18 -41 -24 -105 -28 -135 -10
-255 -82 -255 -155 0 -15 -4 -33 -9 -41 -12 -18 -135 -28 -487 -40 -179 -5
-289 -13 -303 -21 -12 -6 -65 -49 -118 -96 -85 -74 -101 -84 -134 -84 -117 0
-470 -61 -639 -110 -52 -15 -104 -30 -115 -33 -81 -21 -239 -92 -358 -160 -83
-48 -262 -117 -303 -117 -51 0 -214 -58 -312 -110 -79 -43 -245 -163 -277
-201 -12 -13 -29 -49 -39 -79 -10 -30 -24 -68 -31 -85 -7 -16 -31 -82 -54
-145 -82 -223 -99 -264 -133 -321 -76 -126 -106 -238 -115 -429 -7 -166 -11
-176 -107 -271 l-56 -57 0 -145 c0 -162 17 -333 59 -612 16 -104 34 -229 40
-277 15 -119 61 -231 137 -335 19 -26 12 -53 -13 -53 -33 0 -238 -83 -323
-131 -87 -49 -133 -90 -165 -146 -18 -31 -18 -33 0 -73 24 -53 85 -107 167
-148 97 -48 97 -47 65 -72 -23 -18 -27 -29 -27 -71 0 -42 5 -54 33 -83 33 -35
106 -68 192 -86 96 -22 247 -14 471 24 246 42 444 42 954 1 162 -14 385 -31
495 -40 240 -19 588 -55 855 -90 186 -24 294 -42 515 -87 321 -66 531 -77
1780 -94 479 -6 476 -7 950 40 83 9 281 20 440 26 160 5 317 13 350 16 122 12
329 46 365 60 33 14 50 13 181 -7 123 -20 182 -23 399 -22 360 1 484 25 715
137 158 78 269 161 440 331 215 214 291 277 417 343 145 77 418 174 710 252
84 23 209 59 278 80 340 105 271 93 605 100 323 7 382 15 432 61 55 51 105
211 144 459 17 109 28 154 46 180 27 41 32 129 9 176 -12 24 -13 70 -7 274 4
135 8 265 8 290 1 25 9 112 18 193 21 178 15 259 -22 314 -18 27 -28 59 -35
113 -16 134 -58 326 -82 376 -8 16 -20 56 -26 89 -24 117 -59 197 -109 244
-66 62 -217 174 -433 319 -144 96 -188 130 -188 146 0 28 18 151 29 206 6 25
17 90 26 145 45 291 51 318 84 405 16 44 18 45 71 52 98 13 464 25 483 16 12
-6 17 -21 17 -48 0 -51 27 -69 173 -117 18 -6 20 25 22 263 l0 56 -85 34 c-47
18 -88 34 -92 34 -5 0 -8 -17 -8 -39 0 -21 -6 -43 -12 -49 -13 -10 -214 -20
-803 -42 -165 -7 -383 -15 -485 -19 -174 -8 -230 -3 -230 20 0 8 -203 181
-295 251 -184 139 -464 285 -650 338 -44 12 -91 26 -105 31 -84 30 -540 62
-1195 84 -93 3 -204 7 -245 8 -41 1 -138 2 -215 0z m3524 -837 c21 -25 25
-114 8 -194 -21 -97 -41 -202 -62 -317 -8 -49 -20 -108 -25 -130 -5 -22 -11
-52 -15 -67 -10 -48 -39 -35 -102 46 -60 78 -137 180 -188 251 -73 101 -189
248 -240 304 -85 91 -82 95 105 103 85 4 180 9 210 11 153 10 298 7 309 -7z"/>
</g>
</svg>
